<svg width="32" height="32" viewBox="0 0 32 32" fill="none" xmlns="http://www.w3.org/2000/svg">
<path d="M15.9999 17.3334C18.209 17.3334 19.9999 15.5425 19.9999 13.3334C19.9999 11.1242 18.209 9.33337 15.9999 9.33337C13.7908 9.33337 11.9999 11.1242 11.9999 13.3334C11.9999 15.5425 13.7908 17.3334 15.9999 17.3334Z" stroke="white" stroke-width="2.68116" stroke-linecap="round" stroke-linejoin="round"/>
<path d="M15.9999 2.66675C13.171 2.66675 10.4579 3.79055 8.45748 5.79094C6.45709 7.79133 5.33328 10.5044 5.33328 13.3334C5.33328 15.8561 5.86928 17.5067 7.33328 19.3334L15.9999 29.3334L24.6666 19.3334C26.1306 17.5067 26.6666 15.8561 26.6666 13.3334C26.6666 10.5044 25.5428 7.79133 23.5424 5.79094C21.542 3.79055 18.8289 2.66675 15.9999 2.66675V2.66675Z" stroke="white" stroke-width="2.68116" stroke-linecap="round" stroke-linejoin="round"/>
</svg>
