<svg width="29" height="28" viewBox="0 0 29 28" fill="none" xmlns="http://www.w3.org/2000/svg">
<path fill-rule="evenodd" clip-rule="evenodd" d="M21.3079 16.779C20.9602 16.6052 19.2557 15.7675 18.9384 15.6508C18.6211 15.5353 18.3901 15.4782 18.1579 15.8258C17.9269 16.1712 17.2631 16.9528 17.0613 17.1838C16.8583 17.416 16.6564 17.444 16.3099 17.2713C15.9634 17.0963 14.8458 16.7312 13.5216 15.5505C12.4914 14.6312 11.7949 13.496 11.5931 13.1483C11.3913 12.8018 11.5709 12.614 11.7448 12.4413C11.9011 12.2862 12.0913 12.0365 12.2651 11.8347C12.4389 11.6317 12.4961 11.487 12.6116 11.2548C12.7283 11.0238 12.6699 10.822 12.5824 10.6482C12.4961 10.4743 11.8031 8.76752 11.5138 8.07335C11.2326 7.39785 10.9468 7.49002 10.7344 7.47835C10.5314 7.46902 10.3004 7.46669 10.0694 7.46669C9.83845 7.46669 9.46278 7.55302 9.14545 7.90069C8.82695 8.24718 7.93212 9.08602 7.93212 10.7928C7.93212 12.4985 9.17345 14.147 9.34728 14.3792C9.52111 14.6102 11.7914 18.1125 15.2693 19.614C16.0976 19.971 16.7428 20.1845 17.2456 20.3431C18.0762 20.608 18.8322 20.5706 19.4296 20.4808C20.0946 20.3816 21.4806 19.642 21.7699 18.8323C22.0581 18.0226 22.0581 17.3285 21.9717 17.1838C21.8854 17.0392 21.6544 16.9528 21.3067 16.779H21.3079ZM14.9823 25.4158H14.9776C12.9119 25.4162 10.8842 24.8609 9.10695 23.8081L8.68695 23.5585L4.3213 24.7041L5.4868 20.4481L5.21263 20.0118C4.05779 18.1736 3.44665 16.0461 3.4498 13.8752C3.45214 7.51685 8.62512 2.34387 14.9869 2.34387C18.0669 2.34387 20.9626 3.54554 23.1396 5.72486C24.2133 6.7942 25.0644 8.06585 25.6435 9.46623C26.2227 10.8666 26.5184 12.3679 26.5136 13.8833C26.5112 20.2416 21.3382 25.4158 14.9823 25.4158V25.4158ZM24.7962 4.06937C23.5108 2.77545 21.9813 1.7495 20.2965 1.05098C18.6117 0.352454 16.805 -0.0047556 14.9811 4.7807e-05C7.33479 4.7807e-05 1.10948 6.22419 1.10714 13.874C1.10598 16.3193 1.74414 18.7063 2.95864 20.8098L0.990479 27.9999L8.34512 26.0703C10.3796 27.1788 12.6595 27.7596 14.9764 27.7596H14.9823C22.6286 27.7596 28.8539 21.5355 28.8562 13.8845C28.8619 12.0613 28.5059 10.2551 27.809 8.57039C27.1122 6.88565 26.0881 5.35581 24.7962 4.06937" fill="#25D366"/>
</svg>
