<svg width="32" height="32" viewBox="0 0 32 32" fill="none" xmlns="http://www.w3.org/2000/svg">
<path fill-rule="evenodd" clip-rule="evenodd" d="M22.3079 18.779C21.9602 18.6052 20.2557 17.7675 19.9384 17.6508C19.6211 17.5353 19.3901 17.4782 19.1579 17.8258C18.9269 18.1712 18.2631 18.9528 18.0613 19.1838C17.8583 19.416 17.6564 19.444 17.3099 19.2713C16.9634 19.0963 15.8458 18.7312 14.5216 17.5505C13.4914 16.6312 12.7949 15.496 12.5931 15.1483C12.3913 14.8018 12.5709 14.614 12.7448 14.4413C12.9011 14.2862 13.0913 14.0365 13.2651 13.8347C13.4389 13.6317 13.4961 13.487 13.6116 13.2548C13.7283 13.0238 13.6699 12.822 13.5824 12.6482C13.4961 12.4743 12.8031 10.7675 12.5138 10.0734C12.2326 9.39785 11.9468 9.49002 11.7344 9.47835C11.5314 9.46902 11.3004 9.46669 11.0694 9.46669C10.8384 9.46669 10.4628 9.55302 10.1454 9.90069C9.82695 10.2472 8.93212 11.086 8.93212 12.7928C8.93212 14.4985 10.1734 16.147 10.3473 16.3792C10.5211 16.6102 12.7914 20.1125 16.2693 21.614C17.0976 21.971 17.7428 22.1845 18.2456 22.3431C19.0763 22.608 19.8322 22.5706 20.4296 22.4808C21.0946 22.3816 22.4806 21.642 22.7699 20.8323C23.0581 20.0226 23.0581 19.3285 22.9717 19.1838C22.8854 19.0392 22.6544 18.9528 22.3067 18.779H22.3079ZM15.9823 27.4158H15.9776C13.9119 27.4162 11.8842 26.8609 10.1069 25.8081L9.68695 25.5585L5.3213 26.7041L6.4868 22.4481L6.21263 22.0118C5.0578 20.1736 4.44665 18.0461 4.4498 15.8752C4.45214 9.51685 9.62512 4.34387 15.9869 4.34387C19.0669 4.34387 21.9626 5.54554 24.1396 7.72486C25.2133 8.7942 26.0644 10.0658 26.6435 11.4662C27.2227 12.8666 27.5184 14.3679 27.5136 15.8833C27.5112 22.2416 22.3382 27.4158 15.9823 27.4158ZM25.7962 6.06937C24.5108 4.77545 22.9813 3.7495 21.2965 3.05098C19.6117 2.35245 17.805 1.99524 15.9811 2.00005C8.33479 2.00005 2.10948 8.22419 2.10714 15.874C2.10598 18.3193 2.74414 20.7063 3.95864 22.8098L1.99048 29.9999L9.34512 28.0703C11.3796 29.1788 13.6595 29.7596 15.9764 29.7596H15.9823C23.6286 29.7596 29.8539 23.5355 29.8562 15.8845C29.8619 14.0613 29.5059 12.2551 28.809 10.5704C28.1122 8.88565 27.0881 7.35581 25.7962 6.06937Z" fill="white"/>
</svg>
