<svg width="24" height="25" viewBox="0 0 24 25" fill="none" xmlns="http://www.w3.org/2000/svg">
<path d="M20.947 9.26498C20.9369 8.5076 20.7951 7.75775 20.528 7.04898C20.2964 6.45113 19.9425 5.90818 19.4892 5.45481C19.0358 5.00144 18.4929 4.64763 17.895 4.41598C17.1953 4.15334 16.4562 4.01132 15.709 3.99598C14.747 3.95298 14.442 3.94098 12 3.94098C9.55801 3.94098 9.24501 3.94098 8.29001 3.99598C7.54317 4.01143 6.80436 4.15345 6.10501 4.41598C5.50707 4.64747 4.96403 5.00122 4.51064 5.45461C4.05725 5.908 3.7035 6.45104 3.47201 7.04898C3.20884 7.74811 3.06713 8.48709 3.05301 9.23398C3.01001 10.197 2.99701 10.502 2.99701 12.944C2.99701 15.386 2.99701 15.698 3.05301 16.654C3.06801 17.402 3.20901 18.14 3.47201 18.841C3.70389 19.4387 4.05791 19.9816 4.51145 20.4348C4.96499 20.8879 5.50807 21.2416 6.10601 21.473C6.80344 21.7462 7.54238 21.8984 8.29101 21.923C9.25401 21.966 9.55901 21.979 12.001 21.979C14.443 21.979 14.756 21.979 15.711 21.923C16.4582 21.9083 17.1974 21.7666 17.897 21.504C18.4947 21.2721 19.0375 20.9182 19.4909 20.4648C19.9442 20.0115 20.2981 19.4687 20.53 18.871C20.793 18.171 20.934 17.433 20.949 16.684C20.992 15.722 21.005 15.417 21.005 12.974C21.003 10.532 21.003 10.222 20.947 9.26498ZM11.994 17.562C9.44001 17.562 7.37101 15.493 7.37101 12.939C7.37101 10.385 9.44001 8.31598 11.994 8.31598C13.2201 8.31598 14.396 8.80304 15.263 9.67002C16.1299 10.537 16.617 11.7129 16.617 12.939C16.617 14.1651 16.1299 15.341 15.263 16.2079C14.396 17.0749 13.2201 17.562 11.994 17.562ZM16.801 9.22298C16.204 9.22298 15.723 8.74098 15.723 8.14498C15.723 8.00348 15.7509 7.86337 15.805 7.73264C15.8592 7.60191 15.9385 7.48313 16.0386 7.38307C16.1387 7.28302 16.2574 7.20365 16.3882 7.1495C16.5189 7.09535 16.659 7.06748 16.8005 7.06748C16.942 7.06748 17.0821 7.09535 17.2129 7.1495C17.3436 7.20365 17.4624 7.28302 17.5624 7.38307C17.6625 7.48313 17.7418 7.60191 17.796 7.73264C17.8501 7.86337 17.878 8.00348 17.878 8.14498C17.878 8.74098 17.396 9.22298 16.801 9.22298Z" fill="white"/>
<path d="M11.994 15.942C13.6525 15.942 14.997 14.5975 14.997 12.939C14.997 11.2805 13.6525 9.93597 11.994 9.93597C10.3355 9.93597 8.99103 11.2805 8.99103 12.939C8.99103 14.5975 10.3355 15.942 11.994 15.942Z" fill="white"/>
</svg>
